solid example - source_Dummy_Nickel-1
   facet normal 1.000000e+00 0.000000e+00 -0.000000e+00
      outer loop
         vertex 3.547954e+00 1.010021e+03 3.482450e+00
         vertex 3.547954e+00 1.010021e+03 5.034825e+02
         vertex 3.547954e+00 8.100211e+02 3.482450e+00
      endloop
   endfacet
   facet normal 1.000000e+00 0.000000e+00 0.000000e+00
      outer loop
         vertex 3.547954e+00 8.100211e+02 3.482450e+00
         vertex 3.547954e+00 1.010021e+03 5.034825e+02
         vertex 3.547954e+00 8.100211e+02 5.034825e+02
      endloop
   endfacet
   facet normal 0.000000e+00 0.000000e+00 -1.000000e+00
      outer loop
         vertex 3.547954e+00 1.010021e+03 5.034825e+02
         vertex 5.035480e+02 1.010021e+03 5.034825e+02
         vertex 3.547954e+00 8.100211e+02 5.034825e+02
      endloop
   endfacet
   facet normal 0.000000e+00 0.000000e+00 -1.000000e+00
      outer loop
         vertex 3.547954e+00 8.100211e+02 5.034825e+02
         vertex 5.035480e+02 1.010021e+03 5.034825e+02
         vertex 5.035480e+02 8.100211e+02 5.034825e+02
      endloop
   endfacet
   facet normal -1.000000e+00 -0.000000e+00 -0.000000e+00
      outer loop
         vertex 5.035480e+02 1.010021e+03 5.034825e+02
         vertex 5.035480e+02 1.010021e+03 3.482450e+00
         vertex 5.035480e+02 8.100211e+02 5.034825e+02
      endloop
   endfacet
   facet normal -1.000000e+00 0.000000e+00 0.000000e+00
      outer loop
         vertex 5.035480e+02 8.100211e+02 5.034825e+02
         vertex 5.035480e+02 1.010021e+03 3.482450e+00
         vertex 5.035480e+02 8.100211e+02 3.482450e+00
      endloop
   endfacet
   facet normal 0.000000e+00 0.000000e+00 1.000000e+00
      outer loop
         vertex 5.035480e+02 1.010021e+03 3.482450e+00
         vertex 3.547954e+00 1.010021e+03 3.482450e+00
         vertex 5.035480e+02 8.100211e+02 3.482450e+00
      endloop
   endfacet
   facet normal 0.000000e+00 0.000000e+00 1.000000e+00
      outer loop
         vertex 5.035480e+02 8.100211e+02 3.482450e+00
         vertex 3.547954e+00 1.010021e+03 3.482450e+00
         vertex 3.547954e+00 8.100211e+02 3.482450e+00
      endloop
   endfacet
   facet normal 0.000000e+00 -1.000000e+00 0.000000e+00
      outer loop
         vertex 2.918502e+02 1.010021e+03 2.213431e+02
         vertex 5.035480e+02 1.010021e+03 3.482450e+00
         vertex 2.968492e+02 1.010021e+03 2.284824e+02
      endloop
   endfacet
   facet normal 0.000000e+00 -1.000000e+00 0.000000e+00
      outer loop
         vertex 2.968492e+02 1.010021e+03 2.284824e+02
         vertex 5.035480e+02 1.010021e+03 3.482450e+00
         vertex 3.005326e+02 1.010021e+03 2.363814e+02
      endloop
   endfacet
   facet normal 0.000000e+00 -1.000000e+00 0.000000e+00
      outer loop
         vertex 2.102467e+02 1.010021e+03 2.784825e+02
         vertex 2.152457e+02 1.010021e+03 2.856218e+02
         vertex 3.547954e+00 1.010021e+03 5.034825e+02
      endloop
   endfacet
   facet normal 0.000000e+00 -1.000000e+00 -0.000000e+00
      outer loop
         vertex 2.918502e+02 1.010021e+03 2.213431e+02
         vertex 2.856873e+02 1.010021e+03 2.151802e+02
         vertex 5.035480e+02 1.010021e+03 3.482450e+00
      endloop
   endfacet
   facet normal 0.000000e+00 -1.000000e+00 0.000000e+00
      outer loop
         vertex 5.035480e+02 1.010021e+03 3.482450e+00
         vertex 2.856873e+02 1.010021e+03 2.151802e+02
         vertex 2.785480e+02 1.010021e+03 2.101812e+02
      endloop
   endfacet
   facet normal 0.000000e+00 -1.000000e+00 0.000000e+00
      outer loop
         vertex 5.035480e+02 1.010021e+03 3.482450e+00
         vertex 2.785480e+02 1.010021e+03 2.101812e+02
         vertex 2.706490e+02 1.010021e+03 2.064978e+02
      endloop
   endfacet
   facet normal -0.000000e+00 -1.000000e+00 0.000000e+00
      outer loop
         vertex 2.364469e+02 1.010021e+03 2.064978e+02
         vertex 2.285480e+02 1.010021e+03 2.101812e+02
         vertex 3.547954e+00 1.010021e+03 3.482450e+00
      endloop
   endfacet
   facet normal 0.000000e+00 -1.000000e+00 0.000000e+00
      outer loop
         vertex 3.547954e+00 1.010021e+03 3.482450e+00
         vertex 2.285480e+02 1.010021e+03 2.101812e+02
         vertex 2.214086e+02 1.010021e+03 2.151802e+02
      endloop
   endfacet
   facet normal -0.000000e+00 -1.000000e+00 0.000000e+00
      outer loop
         vertex 2.214086e+02 1.010021e+03 2.151802e+02
         vertex 2.152457e+02 1.010021e+03 2.213431e+02
         vertex 3.547954e+00 1.010021e+03 3.482450e+00
      endloop
   endfacet
   facet normal 0.000000e+00 -1.000000e+00 0.000000e+00
      outer loop
         vertex 3.547954e+00 1.010021e+03 3.482450e+00
         vertex 2.152457e+02 1.010021e+03 2.213431e+02
         vertex 2.102467e+02 1.010021e+03 2.284824e+02
      endloop
   endfacet
   facet normal 0.000000e+00 -1.000000e+00 0.000000e+00
      outer loop
         vertex 3.547954e+00 1.010021e+03 3.482450e+00
         vertex 2.102467e+02 1.010021e+03 2.284824e+02
         vertex 2.065633e+02 1.010021e+03 2.363814e+02
      endloop
   endfacet
   facet normal 0.000000e+00 -1.000000e+00 -0.000000e+00
      outer loop
         vertex 2.706490e+02 1.010021e+03 2.064978e+02
         vertex 2.622304e+02 1.010021e+03 2.042421e+02
         vertex 5.035480e+02 1.010021e+03 3.482450e+00
      endloop
   endfacet
   facet normal 0.000000e+00 -1.000000e+00 0.000000e+00
      outer loop
         vertex 5.035480e+02 1.010021e+03 3.482450e+00
         vertex 2.622304e+02 1.010021e+03 2.042421e+02
         vertex 2.535480e+02 1.010021e+03 2.034824e+02
      endloop
   endfacet
   facet normal 0.000000e+00 -1.000000e+00 0.000000e+00
      outer loop
         vertex 5.035480e+02 1.010021e+03 3.482450e+00
         vertex 2.535480e+02 1.010021e+03 2.034824e+02
         vertex 3.547954e+00 1.010021e+03 3.482450e+00
      endloop
   endfacet
   facet normal 0.000000e+00 -1.000000e+00 0.000000e+00
      outer loop
         vertex 3.547954e+00 1.010021e+03 3.482450e+00
         vertex 2.535480e+02 1.010021e+03 2.034824e+02
         vertex 2.448655e+02 1.010021e+03 2.042421e+02
      endloop
   endfacet
   facet normal 0.000000e+00 -1.000000e+00 0.000000e+00
      outer loop
         vertex 3.547954e+00 1.010021e+03 3.482450e+00
         vertex 2.448655e+02 1.010021e+03 2.042421e+02
         vertex 2.364469e+02 1.010021e+03 2.064978e+02
      endloop
   endfacet
   facet normal -0.000000e+00 -1.000000e+00 0.000000e+00
      outer loop
         vertex 2.102467e+02 1.010021e+03 2.784825e+02
         vertex 3.547954e+00 1.010021e+03 5.034825e+02
         vertex 2.065633e+02 1.010021e+03 2.705835e+02
      endloop
   endfacet
   facet normal -0.000000e+00 -1.000000e+00 0.000000e+00
      outer loop
         vertex 2.065633e+02 1.010021e+03 2.363814e+02
         vertex 2.043076e+02 1.010021e+03 2.448000e+02
         vertex 3.547954e+00 1.010021e+03 3.482450e+00
      endloop
   endfacet
   facet normal 0.000000e+00 -1.000000e+00 0.000000e+00
      outer loop
         vertex 3.547954e+00 1.010021e+03 3.482450e+00
         vertex 2.043076e+02 1.010021e+03 2.448000e+02
         vertex 2.035480e+02 1.010021e+03 2.534825e+02
      endloop
   endfacet
   facet normal 0.000000e+00 -1.000000e+00 0.000000e+00
      outer loop
         vertex 3.547954e+00 1.010021e+03 3.482450e+00
         vertex 2.035480e+02 1.010021e+03 2.534825e+02
         vertex 3.547954e+00 1.010021e+03 5.034825e+02
      endloop
   endfacet
   facet normal 0.000000e+00 -1.000000e+00 0.000000e+00
      outer loop
         vertex 3.547954e+00 1.010021e+03 5.034825e+02
         vertex 2.035480e+02 1.010021e+03 2.534825e+02
         vertex 2.043076e+02 1.010021e+03 2.621649e+02
      endloop
   endfacet
   facet normal 0.000000e+00 -1.000000e+00 0.000000e+00
      outer loop
         vertex 3.547954e+00 1.010021e+03 5.034825e+02
         vertex 2.043076e+02 1.010021e+03 2.621649e+02
         vertex 2.065633e+02 1.010021e+03 2.705835e+02
      endloop
   endfacet
   facet normal 0.000000e+00 -1.000000e+00 0.000000e+00
      outer loop
         vertex 2.152457e+02 1.010021e+03 2.856218e+02
         vertex 2.214086e+02 1.010021e+03 2.917847e+02
         vertex 3.547954e+00 1.010021e+03 5.034825e+02
      endloop
   endfacet
   facet normal 0.000000e+00 -1.000000e+00 0.000000e+00
      outer loop
         vertex 3.547954e+00 1.010021e+03 5.034825e+02
         vertex 2.214086e+02 1.010021e+03 2.917847e+02
         vertex 2.285480e+02 1.010021e+03 2.967837e+02
      endloop
   endfacet
   facet normal 0.000000e+00 -1.000000e+00 0.000000e+00
      outer loop
         vertex 3.547954e+00 1.010021e+03 5.034825e+02
         vertex 2.285480e+02 1.010021e+03 2.967837e+02
         vertex 2.364469e+02 1.010021e+03 3.004671e+02
      endloop
   endfacet
   facet normal 0.000000e+00 -1.000000e+00 0.000000e+00
      outer loop
         vertex 2.364469e+02 1.010021e+03 3.004671e+02
         vertex 2.448655e+02 1.010021e+03 3.027228e+02
         vertex 3.547954e+00 1.010021e+03 5.034825e+02
      endloop
   endfacet
   facet normal 0.000000e+00 -1.000000e+00 0.000000e+00
      outer loop
         vertex 3.547954e+00 1.010021e+03 5.034825e+02
         vertex 2.448655e+02 1.010021e+03 3.027228e+02
         vertex 2.535480e+02 1.010021e+03 3.034825e+02
      endloop
   endfacet
   facet normal 0.000000e+00 -1.000000e+00 0.000000e+00
      outer loop
         vertex 3.547954e+00 1.010021e+03 5.034825e+02
         vertex 2.535480e+02 1.010021e+03 3.034825e+02
         vertex 5.035480e+02 1.010021e+03 5.034825e+02
      endloop
   endfacet
   facet normal 0.000000e+00 -1.000000e+00 0.000000e+00
      outer loop
         vertex 5.035480e+02 1.010021e+03 5.034825e+02
         vertex 2.535480e+02 1.010021e+03 3.034825e+02
         vertex 2.622304e+02 1.010021e+03 3.027228e+02
      endloop
   endfacet
   facet normal 0.000000e+00 -1.000000e+00 0.000000e+00
      outer loop
         vertex 2.622304e+02 1.010021e+03 3.027228e+02
         vertex 2.706490e+02 1.010021e+03 3.004671e+02
         vertex 5.035480e+02 1.010021e+03 5.034825e+02
      endloop
   endfacet
   facet normal 0.000000e+00 -1.000000e+00 0.000000e+00
      outer loop
         vertex 5.035480e+02 1.010021e+03 5.034825e+02
         vertex 2.706490e+02 1.010021e+03 3.004671e+02
         vertex 2.785480e+02 1.010021e+03 2.967837e+02
      endloop
   endfacet
   facet normal 0.000000e+00 -1.000000e+00 0.000000e+00
      outer loop
         vertex 5.035480e+02 1.010021e+03 5.034825e+02
         vertex 2.785480e+02 1.010021e+03 2.967837e+02
         vertex 2.856873e+02 1.010021e+03 2.917847e+02
      endloop
   endfacet
   facet normal 0.000000e+00 -1.000000e+00 0.000000e+00
      outer loop
         vertex 3.005326e+02 1.010021e+03 2.705835e+02
         vertex 3.027883e+02 1.010021e+03 2.621649e+02
         vertex 5.035480e+02 1.010021e+03 5.034825e+02
      endloop
   endfacet
   facet normal 0.000000e+00 -1.000000e+00 0.000000e+00
      outer loop
         vertex 5.035480e+02 1.010021e+03 5.034825e+02
         vertex 3.027883e+02 1.010021e+03 2.621649e+02
         vertex 3.035480e+02 1.010021e+03 2.534825e+02
      endloop
   endfacet
   facet normal 0.000000e+00 -1.000000e+00 -0.000000e+00
      outer loop
         vertex 5.035480e+02 1.010021e+03 5.034825e+02
         vertex 3.035480e+02 1.010021e+03 2.534825e+02
         vertex 5.035480e+02 1.010021e+03 3.482450e+00
      endloop
   endfacet
   facet normal 0.000000e+00 -1.000000e+00 0.000000e+00
      outer loop
         vertex 5.035480e+02 1.010021e+03 3.482450e+00
         vertex 3.035480e+02 1.010021e+03 2.534825e+02
         vertex 3.027883e+02 1.010021e+03 2.448000e+02
      endloop
   endfacet
   facet normal 0.000000e+00 -1.000000e+00 0.000000e+00
      outer loop
         vertex 5.035480e+02 1.010021e+03 3.482450e+00
         vertex 3.027883e+02 1.010021e+03 2.448000e+02
         vertex 3.005326e+02 1.010021e+03 2.363814e+02
      endloop
   endfacet
   facet normal 0.000000e+00 -1.000000e+00 0.000000e+00
      outer loop
         vertex 2.856873e+02 1.010021e+03 2.917847e+02
         vertex 2.918502e+02 1.010021e+03 2.856218e+02
         vertex 5.035480e+02 1.010021e+03 5.034825e+02
      endloop
   endfacet
   facet normal 0.000000e+00 -1.000000e+00 0.000000e+00
      outer loop
         vertex 5.035480e+02 1.010021e+03 5.034825e+02
         vertex 2.918502e+02 1.010021e+03 2.856218e+02
         vertex 2.968492e+02 1.010021e+03 2.784825e+02
      endloop
   endfacet
   facet normal 0.000000e+00 -1.000000e+00 0.000000e+00
      outer loop
         vertex 5.035480e+02 1.010021e+03 5.034825e+02
         vertex 2.968492e+02 1.010021e+03 2.784825e+02
         vertex 3.005326e+02 1.010021e+03 2.705835e+02
      endloop
   endfacet
   facet normal 0.000000e+00 1.000000e+00 0.000000e+00
      outer loop
         vertex 5.035480e+02 8.100211e+02 5.034825e+02
         vertex 5.035480e+02 8.100211e+02 3.482450e+00
         vertex 3.547954e+00 8.100211e+02 5.034825e+02
      endloop
   endfacet
   facet normal 0.000000e+00 1.000000e+00 0.000000e+00
      outer loop
         vertex 3.547954e+00 8.100211e+02 5.034825e+02
         vertex 5.035480e+02 8.100211e+02 3.482450e+00
         vertex 3.547954e+00 8.100211e+02 3.482450e+00
      endloop
   endfacet
   facet normal -8.715579e-02 0.000000e+00 -9.961947e-01
      outer loop
         vertex 2.535480e+02 1.010021e+03 3.034825e+02
         vertex 2.535480e+02 1.011021e+03 3.034825e+02
         vertex 2.622304e+02 1.010021e+03 3.027228e+02
      endloop
   endfacet
   facet normal -8.715579e-02 0.000000e+00 -9.961947e-01
      outer loop
         vertex 2.622304e+02 1.010021e+03 3.027228e+02
         vertex 2.535480e+02 1.011021e+03 3.034825e+02
         vertex 2.622304e+02 1.011021e+03 3.027228e+02
      endloop
   endfacet
   facet normal -2.588191e-01 0.000000e+00 -9.659258e-01
      outer loop
         vertex 2.622304e+02 1.010021e+03 3.027228e+02
         vertex 2.622304e+02 1.011021e+03 3.027228e+02
         vertex 2.706490e+02 1.010021e+03 3.004671e+02
      endloop
   endfacet
   facet normal -2.588191e-01 0.000000e+00 -9.659258e-01
      outer loop
         vertex 2.706490e+02 1.010021e+03 3.004671e+02
         vertex 2.622304e+02 1.011021e+03 3.027228e+02
         vertex 2.706490e+02 1.011021e+03 3.004671e+02
      endloop
   endfacet
   facet normal -4.226183e-01 0.000000e+00 -9.063077e-01
      outer loop
         vertex 2.706490e+02 1.010021e+03 3.004671e+02
         vertex 2.706490e+02 1.011021e+03 3.004671e+02
         vertex 2.785480e+02 1.010021e+03 2.967837e+02
      endloop
   endfacet
   facet normal -4.226183e-01 0.000000e+00 -9.063077e-01
      outer loop
         vertex 2.785480e+02 1.010021e+03 2.967837e+02
         vertex 2.706490e+02 1.011021e+03 3.004671e+02
         vertex 2.785480e+02 1.011021e+03 2.967837e+02
      endloop
   endfacet
   facet normal -5.735766e-01 0.000000e+00 -8.191519e-01
      outer loop
         vertex 2.785480e+02 1.010021e+03 2.967837e+02
         vertex 2.785480e+02 1.011021e+03 2.967837e+02
         vertex 2.856873e+02 1.010021e+03 2.917847e+02
      endloop
   endfacet
   facet normal -5.735766e-01 0.000000e+00 -8.191519e-01
      outer loop
         vertex 2.856873e+02 1.010021e+03 2.917847e+02
         vertex 2.785480e+02 1.011021e+03 2.967837e+02
         vertex 2.856873e+02 1.011021e+03 2.917847e+02
      endloop
   endfacet
   facet normal -7.071068e-01 0.000000e+00 -7.071068e-01
      outer loop
         vertex 2.856873e+02 1.010021e+03 2.917847e+02
         vertex 2.856873e+02 1.011021e+03 2.917847e+02
         vertex 2.918502e+02 1.010021e+03 2.856218e+02
      endloop
   endfacet
   facet normal -7.071068e-01 0.000000e+00 -7.071068e-01
      outer loop
         vertex 2.918502e+02 1.010021e+03 2.856218e+02
         vertex 2.856873e+02 1.011021e+03 2.917847e+02
         vertex 2.918502e+02 1.011021e+03 2.856218e+02
      endloop
   endfacet
   facet normal -8.191519e-01 0.000000e+00 -5.735766e-01
      outer loop
         vertex 2.918502e+02 1.010021e+03 2.856218e+02
         vertex 2.918502e+02 1.011021e+03 2.856218e+02
         vertex 2.968492e+02 1.010021e+03 2.784825e+02
      endloop
   endfacet
   facet normal -8.191519e-01 0.000000e+00 -5.735766e-01
      outer loop
         vertex 2.968492e+02 1.010021e+03 2.784825e+02
         vertex 2.918502e+02 1.011021e+03 2.856218e+02
         vertex 2.968492e+02 1.011021e+03 2.784825e+02
      endloop
   endfacet
   facet normal -9.063077e-01 0.000000e+00 -4.226183e-01
      outer loop
         vertex 2.968492e+02 1.010021e+03 2.784825e+02
         vertex 2.968492e+02 1.011021e+03 2.784825e+02
         vertex 3.005326e+02 1.010021e+03 2.705835e+02
      endloop
   endfacet
   facet normal -9.063077e-01 0.000000e+00 -4.226183e-01
      outer loop
         vertex 3.005326e+02 1.010021e+03 2.705835e+02
         vertex 2.968492e+02 1.011021e+03 2.784825e+02
         vertex 3.005326e+02 1.011021e+03 2.705835e+02
      endloop
   endfacet
   facet normal -9.659258e-01 0.000000e+00 -2.588191e-01
      outer loop
         vertex 3.005326e+02 1.010021e+03 2.705835e+02
         vertex 3.005326e+02 1.011021e+03 2.705835e+02
         vertex 3.027883e+02 1.010021e+03 2.621649e+02
      endloop
   endfacet
   facet normal -9.659258e-01 0.000000e+00 -2.588191e-01
      outer loop
         vertex 3.027883e+02 1.010021e+03 2.621649e+02
         vertex 3.005326e+02 1.011021e+03 2.705835e+02
         vertex 3.027883e+02 1.011021e+03 2.621649e+02
      endloop
   endfacet
   facet normal -9.961947e-01 0.000000e+00 -8.715579e-02
      outer loop
         vertex 3.027883e+02 1.010021e+03 2.621649e+02
         vertex 3.027883e+02 1.011021e+03 2.621649e+02
         vertex 3.035480e+02 1.010021e+03 2.534825e+02
      endloop
   endfacet
   facet normal -9.961947e-01 0.000000e+00 -8.715579e-02
      outer loop
         vertex 3.035480e+02 1.010021e+03 2.534825e+02
         vertex 3.027883e+02 1.011021e+03 2.621649e+02
         vertex 3.035480e+02 1.011021e+03 2.534825e+02
      endloop
   endfacet
   facet normal -9.961947e-01 0.000000e+00 8.715579e-02
      outer loop
         vertex 3.035480e+02 1.010021e+03 2.534825e+02
         vertex 3.035480e+02 1.011021e+03 2.534825e+02
         vertex 3.027883e+02 1.010021e+03 2.448000e+02
      endloop
   endfacet
   facet normal -9.961947e-01 0.000000e+00 8.715579e-02
      outer loop
         vertex 3.027883e+02 1.010021e+03 2.448000e+02
         vertex 3.035480e+02 1.011021e+03 2.534825e+02
         vertex 3.027883e+02 1.011021e+03 2.448000e+02
      endloop
   endfacet
   facet normal -9.659258e-01 0.000000e+00 2.588191e-01
      outer loop
         vertex 3.027883e+02 1.010021e+03 2.448000e+02
         vertex 3.027883e+02 1.011021e+03 2.448000e+02
         vertex 3.005326e+02 1.010021e+03 2.363814e+02
      endloop
   endfacet
   facet normal -9.659258e-01 0.000000e+00 2.588191e-01
      outer loop
         vertex 3.005326e+02 1.010021e+03 2.363814e+02
         vertex 3.027883e+02 1.011021e+03 2.448000e+02
         vertex 3.005326e+02 1.011021e+03 2.363814e+02
      endloop
   endfacet
   facet normal -9.063077e-01 0.000000e+00 4.226183e-01
      outer loop
         vertex 3.005326e+02 1.010021e+03 2.363814e+02
         vertex 3.005326e+02 1.011021e+03 2.363814e+02
         vertex 2.968492e+02 1.010021e+03 2.284824e+02
      endloop
   endfacet
   facet normal -9.063077e-01 0.000000e+00 4.226183e-01
      outer loop
         vertex 2.968492e+02 1.010021e+03 2.284824e+02
         vertex 3.005326e+02 1.011021e+03 2.363814e+02
         vertex 2.968492e+02 1.011021e+03 2.284824e+02
      endloop
   endfacet
   facet normal -8.191519e-01 0.000000e+00 5.735766e-01
      outer loop
         vertex 2.968492e+02 1.010021e+03 2.284824e+02
         vertex 2.968492e+02 1.011021e+03 2.284824e+02
         vertex 2.918502e+02 1.010021e+03 2.213431e+02
      endloop
   endfacet
   facet normal -8.191519e-01 0.000000e+00 5.735766e-01
      outer loop
         vertex 2.918502e+02 1.010021e+03 2.213431e+02
         vertex 2.968492e+02 1.011021e+03 2.284824e+02
         vertex 2.918502e+02 1.011021e+03 2.213431e+02
      endloop
   endfacet
   facet normal -7.071068e-01 0.000000e+00 7.071068e-01
      outer loop
         vertex 2.918502e+02 1.010021e+03 2.213431e+02
         vertex 2.918502e+02 1.011021e+03 2.213431e+02
         vertex 2.856873e+02 1.010021e+03 2.151802e+02
      endloop
   endfacet
   facet normal -7.071068e-01 0.000000e+00 7.071068e-01
      outer loop
         vertex 2.856873e+02 1.010021e+03 2.151802e+02
         vertex 2.918502e+02 1.011021e+03 2.213431e+02
         vertex 2.856873e+02 1.011021e+03 2.151802e+02
      endloop
   endfacet
   facet normal -5.735766e-01 0.000000e+00 8.191519e-01
      outer loop
         vertex 2.856873e+02 1.010021e+03 2.151802e+02
         vertex 2.856873e+02 1.011021e+03 2.151802e+02
         vertex 2.785480e+02 1.010021e+03 2.101812e+02
      endloop
   endfacet
   facet normal -5.735766e-01 0.000000e+00 8.191519e-01
      outer loop
         vertex 2.785480e+02 1.010021e+03 2.101812e+02
         vertex 2.856873e+02 1.011021e+03 2.151802e+02
         vertex 2.785480e+02 1.011021e+03 2.101812e+02
      endloop
   endfacet
   facet normal -4.226183e-01 0.000000e+00 9.063077e-01
      outer loop
         vertex 2.785480e+02 1.010021e+03 2.101812e+02
         vertex 2.785480e+02 1.011021e+03 2.101812e+02
         vertex 2.706490e+02 1.010021e+03 2.064978e+02
      endloop
   endfacet
   facet normal -4.226183e-01 0.000000e+00 9.063077e-01
      outer loop
         vertex 2.706490e+02 1.010021e+03 2.064978e+02
         vertex 2.785480e+02 1.011021e+03 2.101812e+02
         vertex 2.706490e+02 1.011021e+03 2.064978e+02
      endloop
   endfacet
   facet normal -2.588191e-01 0.000000e+00 9.659258e-01
      outer loop
         vertex 2.706490e+02 1.010021e+03 2.064978e+02
         vertex 2.706490e+02 1.011021e+03 2.064978e+02
         vertex 2.622304e+02 1.010021e+03 2.042421e+02
      endloop
   endfacet
   facet normal -2.588191e-01 0.000000e+00 9.659258e-01
      outer loop
         vertex 2.622304e+02 1.010021e+03 2.042421e+02
         vertex 2.706490e+02 1.011021e+03 2.064978e+02
         vertex 2.622304e+02 1.011021e+03 2.042421e+02
      endloop
   endfacet
   facet normal -8.715579e-02 0.000000e+00 9.961947e-01
      outer loop
         vertex 2.622304e+02 1.010021e+03 2.042421e+02
         vertex 2.622304e+02 1.011021e+03 2.042421e+02
         vertex 2.535480e+02 1.010021e+03 2.034824e+02
      endloop
   endfacet
   facet normal -8.715579e-02 0.000000e+00 9.961947e-01
      outer loop
         vertex 2.535480e+02 1.010021e+03 2.034824e+02
         vertex 2.622304e+02 1.011021e+03 2.042421e+02
         vertex 2.535480e+02 1.011021e+03 2.034824e+02
      endloop
   endfacet
   facet normal 8.715579e-02 -0.000000e+00 9.961947e-01
      outer loop
         vertex 2.535480e+02 1.010021e+03 2.034824e+02
         vertex 2.535480e+02 1.011021e+03 2.034824e+02
         vertex 2.448655e+02 1.010021e+03 2.042421e+02
      endloop
   endfacet
   facet normal 8.715579e-02 -0.000000e+00 9.961947e-01
      outer loop
         vertex 2.448655e+02 1.010021e+03 2.042421e+02
         vertex 2.535480e+02 1.011021e+03 2.034824e+02
         vertex 2.448655e+02 1.011021e+03 2.042421e+02
      endloop
   endfacet
   facet normal 2.588191e-01 -0.000000e+00 9.659258e-01
      outer loop
         vertex 2.448655e+02 1.010021e+03 2.042421e+02
         vertex 2.448655e+02 1.011021e+03 2.042421e+02
         vertex 2.364469e+02 1.010021e+03 2.064978e+02
      endloop
   endfacet
   facet normal 2.588191e-01 -0.000000e+00 9.659258e-01
      outer loop
         vertex 2.364469e+02 1.010021e+03 2.064978e+02
         vertex 2.448655e+02 1.011021e+03 2.042421e+02
         vertex 2.364469e+02 1.011021e+03 2.064978e+02
      endloop
   endfacet
   facet normal 4.226183e-01 -0.000000e+00 9.063077e-01
      outer loop
         vertex 2.364469e+02 1.010021e+03 2.064978e+02
         vertex 2.364469e+02 1.011021e+03 2.064978e+02
         vertex 2.285480e+02 1.010021e+03 2.101812e+02
      endloop
   endfacet
   facet normal 4.226183e-01 -0.000000e+00 9.063077e-01
      outer loop
         vertex 2.285480e+02 1.010021e+03 2.101812e+02
         vertex 2.364469e+02 1.011021e+03 2.064978e+02
         vertex 2.285480e+02 1.011021e+03 2.101812e+02
      endloop
   endfacet
   facet normal 5.735766e-01 -0.000000e+00 8.191519e-01
      outer loop
         vertex 2.285480e+02 1.010021e+03 2.101812e+02
         vertex 2.285480e+02 1.011021e+03 2.101812e+02
         vertex 2.214086e+02 1.010021e+03 2.151802e+02
      endloop
   endfacet
   facet normal 5.735766e-01 -0.000000e+00 8.191519e-01
      outer loop
         vertex 2.214086e+02 1.010021e+03 2.151802e+02
         vertex 2.285480e+02 1.011021e+03 2.101812e+02
         vertex 2.214086e+02 1.011021e+03 2.151802e+02
      endloop
   endfacet
   facet normal 7.071068e-01 -0.000000e+00 7.071068e-01
      outer loop
         vertex 2.214086e+02 1.010021e+03 2.151802e+02
         vertex 2.214086e+02 1.011021e+03 2.151802e+02
         vertex 2.152457e+02 1.010021e+03 2.213431e+02
      endloop
   endfacet
   facet normal 7.071068e-01 -0.000000e+00 7.071068e-01
      outer loop
         vertex 2.152457e+02 1.010021e+03 2.213431e+02
         vertex 2.214086e+02 1.011021e+03 2.151802e+02
         vertex 2.152457e+02 1.011021e+03 2.213431e+02
      endloop
   endfacet
   facet normal 8.191519e-01 -0.000000e+00 5.735766e-01
      outer loop
         vertex 2.152457e+02 1.010021e+03 2.213431e+02
         vertex 2.152457e+02 1.011021e+03 2.213431e+02
         vertex 2.102467e+02 1.010021e+03 2.284824e+02
      endloop
   endfacet
   facet normal 8.191519e-01 -0.000000e+00 5.735766e-01
      outer loop
         vertex 2.102467e+02 1.010021e+03 2.284824e+02
         vertex 2.152457e+02 1.011021e+03 2.213431e+02
         vertex 2.102467e+02 1.011021e+03 2.284824e+02
      endloop
   endfacet
   facet normal 9.063077e-01 -0.000000e+00 4.226183e-01
      outer loop
         vertex 2.102467e+02 1.010021e+03 2.284824e+02
         vertex 2.102467e+02 1.011021e+03 2.284824e+02
         vertex 2.065633e+02 1.010021e+03 2.363814e+02
      endloop
   endfacet
   facet normal 9.063077e-01 -0.000000e+00 4.226183e-01
      outer loop
         vertex 2.065633e+02 1.010021e+03 2.363814e+02
         vertex 2.102467e+02 1.011021e+03 2.284824e+02
         vertex 2.065633e+02 1.011021e+03 2.363814e+02
      endloop
   endfacet
   facet normal 9.659258e-01 -0.000000e+00 2.588191e-01
      outer loop
         vertex 2.065633e+02 1.010021e+03 2.363814e+02
         vertex 2.065633e+02 1.011021e+03 2.363814e+02
         vertex 2.043076e+02 1.010021e+03 2.448000e+02
      endloop
   endfacet
   facet normal 9.659258e-01 -0.000000e+00 2.588191e-01
      outer loop
         vertex 2.043076e+02 1.010021e+03 2.448000e+02
         vertex 2.065633e+02 1.011021e+03 2.363814e+02
         vertex 2.043076e+02 1.011021e+03 2.448000e+02
      endloop
   endfacet
   facet normal 9.961947e-01 -0.000000e+00 8.715579e-02
      outer loop
         vertex 2.043076e+02 1.010021e+03 2.448000e+02
         vertex 2.043076e+02 1.011021e+03 2.448000e+02
         vertex 2.035480e+02 1.010021e+03 2.534825e+02
      endloop
   endfacet
   facet normal 9.961947e-01 -0.000000e+00 8.715579e-02
      outer loop
         vertex 2.035480e+02 1.010021e+03 2.534825e+02
         vertex 2.043076e+02 1.011021e+03 2.448000e+02
         vertex 2.035480e+02 1.011021e+03 2.534825e+02
      endloop
   endfacet
   facet normal 9.961947e-01 0.000000e+00 -8.715579e-02
      outer loop
         vertex 2.035480e+02 1.010021e+03 2.534825e+02
         vertex 2.035480e+02 1.011021e+03 2.534825e+02
         vertex 2.043076e+02 1.010021e+03 2.621649e+02
      endloop
   endfacet
   facet normal 9.961947e-01 0.000000e+00 -8.715579e-02
      outer loop
         vertex 2.043076e+02 1.010021e+03 2.621649e+02
         vertex 2.035480e+02 1.011021e+03 2.534825e+02
         vertex 2.043076e+02 1.011021e+03 2.621649e+02
      endloop
   endfacet
   facet normal 9.659258e-01 0.000000e+00 -2.588191e-01
      outer loop
         vertex 2.043076e+02 1.010021e+03 2.621649e+02
         vertex 2.043076e+02 1.011021e+03 2.621649e+02
         vertex 2.065633e+02 1.010021e+03 2.705835e+02
      endloop
   endfacet
   facet normal 9.659258e-01 0.000000e+00 -2.588191e-01
      outer loop
         vertex 2.065633e+02 1.010021e+03 2.705835e+02
         vertex 2.043076e+02 1.011021e+03 2.621649e+02
         vertex 2.065633e+02 1.011021e+03 2.705835e+02
      endloop
   endfacet
   facet normal 9.063077e-01 0.000000e+00 -4.226183e-01
      outer loop
         vertex 2.065633e+02 1.010021e+03 2.705835e+02
         vertex 2.065633e+02 1.011021e+03 2.705835e+02
         vertex 2.102467e+02 1.010021e+03 2.784825e+02
      endloop
   endfacet
   facet normal 9.063077e-01 0.000000e+00 -4.226183e-01
      outer loop
         vertex 2.102467e+02 1.010021e+03 2.784825e+02
         vertex 2.065633e+02 1.011021e+03 2.705835e+02
         vertex 2.102467e+02 1.011021e+03 2.784825e+02
      endloop
   endfacet
   facet normal 8.191519e-01 0.000000e+00 -5.735766e-01
      outer loop
         vertex 2.102467e+02 1.010021e+03 2.784825e+02
         vertex 2.102467e+02 1.011021e+03 2.784825e+02
         vertex 2.152457e+02 1.010021e+03 2.856218e+02
      endloop
   endfacet
   facet normal 8.191519e-01 0.000000e+00 -5.735766e-01
      outer loop
         vertex 2.152457e+02 1.010021e+03 2.856218e+02
         vertex 2.102467e+02 1.011021e+03 2.784825e+02
         vertex 2.152457e+02 1.011021e+03 2.856218e+02
      endloop
   endfacet
   facet normal 7.071068e-01 0.000000e+00 -7.071068e-01
      outer loop
         vertex 2.152457e+02 1.010021e+03 2.856218e+02
         vertex 2.152457e+02 1.011021e+03 2.856218e+02
         vertex 2.214086e+02 1.010021e+03 2.917847e+02
      endloop
   endfacet
   facet normal 7.071068e-01 0.000000e+00 -7.071068e-01
      outer loop
         vertex 2.214086e+02 1.010021e+03 2.917847e+02
         vertex 2.152457e+02 1.011021e+03 2.856218e+02
         vertex 2.214086e+02 1.011021e+03 2.917847e+02
      endloop
   endfacet
   facet normal 5.735766e-01 0.000000e+00 -8.191519e-01
      outer loop
         vertex 2.214086e+02 1.010021e+03 2.917847e+02
         vertex 2.214086e+02 1.011021e+03 2.917847e+02
         vertex 2.285480e+02 1.010021e+03 2.967837e+02
      endloop
   endfacet
   facet normal 5.735766e-01 0.000000e+00 -8.191519e-01
      outer loop
         vertex 2.285480e+02 1.010021e+03 2.967837e+02
         vertex 2.214086e+02 1.011021e+03 2.917847e+02
         vertex 2.285480e+02 1.011021e+03 2.967837e+02
      endloop
   endfacet
   facet normal 4.226183e-01 0.000000e+00 -9.063077e-01
      outer loop
         vertex 2.285480e+02 1.010021e+03 2.967837e+02
         vertex 2.285480e+02 1.011021e+03 2.967837e+02
         vertex 2.364469e+02 1.010021e+03 3.004671e+02
      endloop
   endfacet
   facet normal 4.226183e-01 0.000000e+00 -9.063077e-01
      outer loop
         vertex 2.364469e+02 1.010021e+03 3.004671e+02
         vertex 2.285480e+02 1.011021e+03 2.967837e+02
         vertex 2.364469e+02 1.011021e+03 3.004671e+02
      endloop
   endfacet
   facet normal 2.588191e-01 0.000000e+00 -9.659258e-01
      outer loop
         vertex 2.364469e+02 1.010021e+03 3.004671e+02
         vertex 2.364469e+02 1.011021e+03 3.004671e+02
         vertex 2.448655e+02 1.010021e+03 3.027228e+02
      endloop
   endfacet
   facet normal 2.588191e-01 0.000000e+00 -9.659258e-01
      outer loop
         vertex 2.448655e+02 1.010021e+03 3.027228e+02
         vertex 2.364469e+02 1.011021e+03 3.004671e+02
         vertex 2.448655e+02 1.011021e+03 3.027228e+02
      endloop
   endfacet
   facet normal 8.715579e-02 0.000000e+00 -9.961947e-01
      outer loop
         vertex 2.448655e+02 1.010021e+03 3.027228e+02
         vertex 2.448655e+02 1.011021e+03 3.027228e+02
         vertex 2.535480e+02 1.010021e+03 3.034825e+02
      endloop
   endfacet
   facet normal 8.715579e-02 0.000000e+00 -9.961947e-01
      outer loop
         vertex 2.535480e+02 1.010021e+03 3.034825e+02
         vertex 2.448655e+02 1.011021e+03 3.027228e+02
         vertex 2.535480e+02 1.011021e+03 3.034825e+02
      endloop
   endfacet
   facet normal -1.000000e+00 -0.000000e+00 -0.000000e+00
      outer loop
         vertex 2.547967e+00 1.011021e+03 5.044824e+02
         vertex 2.547967e+00 1.011021e+03 2.482463e+00
         vertex 2.547967e+00 8.090211e+02 5.044824e+02
      endloop
   endfacet
   facet normal -1.000000e+00 0.000000e+00 0.000000e+00
      outer loop
         vertex 2.547967e+00 8.090211e+02 5.044824e+02
         vertex 2.547967e+00 1.011021e+03 2.482463e+00
         vertex 2.547967e+00 8.090211e+02 2.482463e+00
      endloop
   endfacet
   facet normal 0.000000e+00 0.000000e+00 1.000000e+00
      outer loop
         vertex 5.045479e+02 1.011021e+03 5.044824e+02
         vertex 2.547967e+00 1.011021e+03 5.044824e+02
         vertex 5.045479e+02 8.090211e+02 5.044824e+02
      endloop
   endfacet
   facet normal 0.000000e+00 0.000000e+00 1.000000e+00
      outer loop
         vertex 5.045479e+02 8.090211e+02 5.044824e+02
         vertex 2.547967e+00 1.011021e+03 5.044824e+02
         vertex 2.547967e+00 8.090211e+02 5.044824e+02
      endloop
   endfacet
   facet normal 1.000000e+00 0.000000e+00 -0.000000e+00
      outer loop
         vertex 5.045479e+02 1.011021e+03 2.482463e+00
         vertex 5.045479e+02 1.011021e+03 5.044824e+02
         vertex 5.045479e+02 8.090211e+02 2.482463e+00
      endloop
   endfacet
   facet normal 1.000000e+00 0.000000e+00 0.000000e+00
      outer loop
         vertex 5.045479e+02 8.090211e+02 2.482463e+00
         vertex 5.045479e+02 1.011021e+03 5.044824e+02
         vertex 5.045479e+02 8.090211e+02 5.044824e+02
      endloop
   endfacet
   facet normal 0.000000e+00 0.000000e+00 -1.000000e+00
      outer loop
         vertex 2.547967e+00 1.011021e+03 2.482463e+00
         vertex 5.045479e+02 1.011021e+03 2.482463e+00
         vertex 2.547967e+00 8.090211e+02 2.482463e+00
      endloop
   endfacet
   facet normal 0.000000e+00 0.000000e+00 -1.000000e+00
      outer loop
         vertex 2.547967e+00 8.090211e+02 2.482463e+00
         vertex 5.045479e+02 1.011021e+03 2.482463e+00
         vertex 5.045479e+02 8.090211e+02 2.482463e+00
      endloop
   endfacet
   facet normal 0.000000e+00 1.000000e+00 0.000000e+00
      outer loop
         vertex 2.448655e+02 1.011021e+03 3.027228e+02
         vertex 2.364469e+02 1.011021e+03 3.004671e+02
         vertex 2.547967e+00 1.011021e+03 5.044824e+02
      endloop
   endfacet
   facet normal 0.000000e+00 1.000000e+00 0.000000e+00
      outer loop
         vertex 2.547967e+00 1.011021e+03 5.044824e+02
         vertex 2.152457e+02 1.011021e+03 2.856218e+02
         vertex 2.102467e+02 1.011021e+03 2.784825e+02
      endloop
   endfacet
   facet normal 0.000000e+00 1.000000e+00 0.000000e+00
      outer loop
         vertex 2.043076e+02 1.011021e+03 2.448000e+02
         vertex 2.065633e+02 1.011021e+03 2.363814e+02
         vertex 2.547967e+00 1.011021e+03 2.482463e+00
      endloop
   endfacet
   facet normal 0.000000e+00 1.000000e+00 0.000000e+00
      outer loop
         vertex 2.547967e+00 1.011021e+03 2.482463e+00
         vertex 2.065633e+02 1.011021e+03 2.363814e+02
         vertex 2.102467e+02 1.011021e+03 2.284824e+02
      endloop
   endfacet
   facet normal 0.000000e+00 1.000000e+00 0.000000e+00
      outer loop
         vertex 2.364469e+02 1.011021e+03 3.004671e+02
         vertex 2.285480e+02 1.011021e+03 2.967837e+02
         vertex 2.547967e+00 1.011021e+03 5.044824e+02
      endloop
   endfacet
   facet normal 0.000000e+00 1.000000e+00 0.000000e+00
      outer loop
         vertex 2.547967e+00 1.011021e+03 5.044824e+02
         vertex 2.285480e+02 1.011021e+03 2.967837e+02
         vertex 2.214086e+02 1.011021e+03 2.917847e+02
      endloop
   endfacet
   facet normal 0.000000e+00 1.000000e+00 0.000000e+00
      outer loop
         vertex 2.547967e+00 1.011021e+03 5.044824e+02
         vertex 2.214086e+02 1.011021e+03 2.917847e+02
         vertex 2.152457e+02 1.011021e+03 2.856218e+02
      endloop
   endfacet
   facet normal 0.000000e+00 1.000000e+00 0.000000e+00
      outer loop
         vertex 2.102467e+02 1.011021e+03 2.284824e+02
         vertex 2.152457e+02 1.011021e+03 2.213431e+02
         vertex 2.547967e+00 1.011021e+03 2.482463e+00
      endloop
   endfacet
   facet normal 0.000000e+00 1.000000e+00 0.000000e+00
      outer loop
         vertex 2.547967e+00 1.011021e+03 2.482463e+00
         vertex 2.152457e+02 1.011021e+03 2.213431e+02
         vertex 2.214086e+02 1.011021e+03 2.151802e+02
      endloop
   endfacet
   facet normal 0.000000e+00 1.000000e+00 0.000000e+00
      outer loop
         vertex 2.547967e+00 1.011021e+03 2.482463e+00
         vertex 2.214086e+02 1.011021e+03 2.151802e+02
         vertex 2.285480e+02 1.011021e+03 2.101812e+02
      endloop
   endfacet
   facet normal -0.000000e+00 1.000000e+00 0.000000e+00
      outer loop
         vertex 2.856873e+02 1.011021e+03 2.151802e+02
         vertex 2.918502e+02 1.011021e+03 2.213431e+02
         vertex 5.045479e+02 1.011021e+03 2.482463e+00
      endloop
   endfacet
   facet normal 0.000000e+00 1.000000e+00 0.000000e+00
      outer loop
         vertex 5.045479e+02 1.011021e+03 2.482463e+00
         vertex 2.918502e+02 1.011021e+03 2.213431e+02
         vertex 2.968492e+02 1.011021e+03 2.284824e+02
      endloop
   endfacet
   facet normal 0.000000e+00 1.000000e+00 0.000000e+00
      outer loop
         vertex 2.102467e+02 1.011021e+03 2.784825e+02
         vertex 2.065633e+02 1.011021e+03 2.705835e+02
         vertex 2.547967e+00 1.011021e+03 5.044824e+02
      endloop
   endfacet
   facet normal 0.000000e+00 1.000000e+00 0.000000e+00
      outer loop
         vertex 2.547967e+00 1.011021e+03 5.044824e+02
         vertex 2.065633e+02 1.011021e+03 2.705835e+02
         vertex 2.043076e+02 1.011021e+03 2.621649e+02
      endloop
   endfacet
   facet normal 0.000000e+00 1.000000e+00 0.000000e+00
      outer loop
         vertex 2.547967e+00 1.011021e+03 5.044824e+02
         vertex 2.043076e+02 1.011021e+03 2.621649e+02
         vertex 2.547967e+00 1.011021e+03 2.482463e+00
      endloop
   endfacet
   facet normal 0.000000e+00 1.000000e+00 0.000000e+00
      outer loop
         vertex 2.547967e+00 1.011021e+03 2.482463e+00
         vertex 2.043076e+02 1.011021e+03 2.621649e+02
         vertex 2.035480e+02 1.011021e+03 2.534825e+02
      endloop
   endfacet
   facet normal 0.000000e+00 1.000000e+00 0.000000e+00
      outer loop
         vertex 2.547967e+00 1.011021e+03 2.482463e+00
         vertex 2.035480e+02 1.011021e+03 2.534825e+02
         vertex 2.043076e+02 1.011021e+03 2.448000e+02
      endloop
   endfacet
   facet normal 0.000000e+00 1.000000e+00 -0.000000e+00
      outer loop
         vertex 3.027883e+02 1.011021e+03 2.621649e+02
         vertex 3.005326e+02 1.011021e+03 2.705835e+02
         vertex 5.045479e+02 1.011021e+03 5.044824e+02
      endloop
   endfacet
   facet normal -0.000000e+00 1.000000e+00 0.000000e+00
      outer loop
         vertex 2.968492e+02 1.011021e+03 2.284824e+02
         vertex 3.005326e+02 1.011021e+03 2.363814e+02
         vertex 5.045479e+02 1.011021e+03 2.482463e+00
      endloop
   endfacet
   facet normal 0.000000e+00 1.000000e+00 0.000000e+00
      outer loop
         vertex 5.045479e+02 1.011021e+03 2.482463e+00
         vertex 3.005326e+02 1.011021e+03 2.363814e+02
         vertex 3.027883e+02 1.011021e+03 2.448000e+02
      endloop
   endfacet
   facet normal 0.000000e+00 1.000000e+00 -0.000000e+00
      outer loop
         vertex 5.045479e+02 1.011021e+03 2.482463e+00
         vertex 3.027883e+02 1.011021e+03 2.448000e+02
         vertex 5.045479e+02 1.011021e+03 5.044824e+02
      endloop
   endfacet
   facet normal 0.000000e+00 1.000000e+00 0.000000e+00
      outer loop
         vertex 5.045479e+02 1.011021e+03 5.044824e+02
         vertex 3.027883e+02 1.011021e+03 2.448000e+02
         vertex 3.035480e+02 1.011021e+03 2.534825e+02
      endloop
   endfacet
   facet normal 0.000000e+00 1.000000e+00 0.000000e+00
      outer loop
         vertex 5.045479e+02 1.011021e+03 5.044824e+02
         vertex 3.035480e+02 1.011021e+03 2.534825e+02
         vertex 3.027883e+02 1.011021e+03 2.621649e+02
      endloop
   endfacet
   facet normal 0.000000e+00 1.000000e+00 0.000000e+00
      outer loop
         vertex 5.045479e+02 1.011021e+03 5.044824e+02
         vertex 2.622304e+02 1.011021e+03 3.027228e+02
         vertex 2.547967e+00 1.011021e+03 5.044824e+02
      endloop
   endfacet
   facet normal 0.000000e+00 1.000000e+00 0.000000e+00
      outer loop
         vertex 2.547967e+00 1.011021e+03 5.044824e+02
         vertex 2.622304e+02 1.011021e+03 3.027228e+02
         vertex 2.535480e+02 1.011021e+03 3.034825e+02
      endloop
   endfacet
   facet normal 0.000000e+00 1.000000e+00 0.000000e+00
      outer loop
         vertex 2.547967e+00 1.011021e+03 5.044824e+02
         vertex 2.535480e+02 1.011021e+03 3.034825e+02
         vertex 2.448655e+02 1.011021e+03 3.027228e+02
      endloop
   endfacet
   facet normal 0.000000e+00 1.000000e+00 0.000000e+00
      outer loop
         vertex 2.285480e+02 1.011021e+03 2.101812e+02
         vertex 2.364469e+02 1.011021e+03 2.064978e+02
         vertex 2.547967e+00 1.011021e+03 2.482463e+00
      endloop
   endfacet
   facet normal 0.000000e+00 1.000000e+00 0.000000e+00
      outer loop
         vertex 2.547967e+00 1.011021e+03 2.482463e+00
         vertex 2.364469e+02 1.011021e+03 2.064978e+02
         vertex 2.448655e+02 1.011021e+03 2.042421e+02
      endloop
   endfacet
   facet normal 0.000000e+00 1.000000e+00 0.000000e+00
      outer loop
         vertex 2.547967e+00 1.011021e+03 2.482463e+00
         vertex 2.448655e+02 1.011021e+03 2.042421e+02
         vertex 5.045479e+02 1.011021e+03 2.482463e+00
      endloop
   endfacet
   facet normal 0.000000e+00 1.000000e+00 0.000000e+00
      outer loop
         vertex 5.045479e+02 1.011021e+03 2.482463e+00
         vertex 2.448655e+02 1.011021e+03 2.042421e+02
         vertex 2.535480e+02 1.011021e+03 2.034824e+02
      endloop
   endfacet
   facet normal 0.000000e+00 1.000000e+00 0.000000e+00
      outer loop
         vertex 5.045479e+02 1.011021e+03 2.482463e+00
         vertex 2.535480e+02 1.011021e+03 2.034824e+02
         vertex 2.622304e+02 1.011021e+03 2.042421e+02
      endloop
   endfacet
   facet normal -0.000000e+00 1.000000e+00 0.000000e+00
      outer loop
         vertex 2.622304e+02 1.011021e+03 2.042421e+02
         vertex 2.706490e+02 1.011021e+03 2.064978e+02
         vertex 5.045479e+02 1.011021e+03 2.482463e+00
      endloop
   endfacet
   facet normal 0.000000e+00 1.000000e+00 0.000000e+00
      outer loop
         vertex 5.045479e+02 1.011021e+03 2.482463e+00
         vertex 2.706490e+02 1.011021e+03 2.064978e+02
         vertex 2.785480e+02 1.011021e+03 2.101812e+02
      endloop
   endfacet
   facet normal 0.000000e+00 1.000000e+00 0.000000e+00
      outer loop
         vertex 5.045479e+02 1.011021e+03 2.482463e+00
         vertex 2.785480e+02 1.011021e+03 2.101812e+02
         vertex 2.856873e+02 1.011021e+03 2.151802e+02
      endloop
   endfacet
   facet normal 0.000000e+00 1.000000e+00 -0.000000e+00
      outer loop
         vertex 3.005326e+02 1.011021e+03 2.705835e+02
         vertex 2.968492e+02 1.011021e+03 2.784825e+02
         vertex 5.045479e+02 1.011021e+03 5.044824e+02
      endloop
   endfacet
   facet normal 0.000000e+00 1.000000e+00 0.000000e+00
      outer loop
         vertex 5.045479e+02 1.011021e+03 5.044824e+02
         vertex 2.968492e+02 1.011021e+03 2.784825e+02
         vertex 2.918502e+02 1.011021e+03 2.856218e+02
      endloop
   endfacet
   facet normal 0.000000e+00 1.000000e+00 0.000000e+00
      outer loop
         vertex 5.045479e+02 1.011021e+03 5.044824e+02
         vertex 2.918502e+02 1.011021e+03 2.856218e+02
         vertex 2.856873e+02 1.011021e+03 2.917847e+02
      endloop
   endfacet
   facet normal 0.000000e+00 1.000000e+00 -0.000000e+00
      outer loop
         vertex 2.856873e+02 1.011021e+03 2.917847e+02
         vertex 2.785480e+02 1.011021e+03 2.967837e+02
         vertex 5.045479e+02 1.011021e+03 5.044824e+02
      endloop
   endfacet
   facet normal 0.000000e+00 1.000000e+00 0.000000e+00
      outer loop
         vertex 5.045479e+02 1.011021e+03 5.044824e+02
         vertex 2.785480e+02 1.011021e+03 2.967837e+02
         vertex 2.706490e+02 1.011021e+03 3.004671e+02
      endloop
   endfacet
   facet normal 0.000000e+00 1.000000e+00 0.000000e+00
      outer loop
         vertex 5.045479e+02 1.011021e+03 5.044824e+02
         vertex 2.706490e+02 1.011021e+03 3.004671e+02
         vertex 2.622304e+02 1.011021e+03 3.027228e+02
      endloop
   endfacet
   facet normal 0.000000e+00 -1.000000e+00 0.000000e+00
      outer loop
         vertex 5.045479e+02 8.090211e+02 2.482463e+00
         vertex 5.045479e+02 8.090211e+02 5.044824e+02
         vertex 2.547967e+00 8.090211e+02 2.482463e+00
      endloop
   endfacet
   facet normal 0.000000e+00 -1.000000e+00 0.000000e+00
      outer loop
         vertex 2.547967e+00 8.090211e+02 2.482463e+00
         vertex 5.045479e+02 8.090211e+02 5.044824e+02
         vertex 2.547967e+00 8.090211e+02 5.044824e+02
      endloop
   endfacet
endsolid